<svg xmlns="http://www.w3.org/2000/svg" xmlns:xlink="http://www.w3.org/1999/xlink" width="48" height="48" viewBox="0 0 48 48">
  <defs>
    <clipPath id="clip-path">
      <rect id="Rectangle_3" data-name="Rectangle 3" width="48" height="48" fill="#fff" stroke="#707070" stroke-width="1"/>
    </clipPath>
  </defs>
  <g id="VanIcon" clip-path="url(#clip-path)">
    <g id="van" transform="translate(0.22 1)">
      <g id="Group_3" data-name="Group 3" transform="translate(2 39)">
        <g id="Group_2" data-name="Group 2">
          <path id="Path_2" data-name="Path 2" d="M7.583,51.667a1,1,0,0,0-1,1v3a1,1,0,0,1-2,0v-3a1,1,0,1,0-2,0v3a3,3,0,1,0,6,0v-3A1,1,0,0,0,7.583,51.667Z" transform="translate(-2.583 -51.667)" fill="#fff"/>
        </g>
      </g>
      <g id="Group_5" data-name="Group 5" transform="translate(38 39)">
        <g id="Group_4" data-name="Group 4">
          <path id="Path_3" data-name="Path 3" d="M54.083,51.667a1,1,0,0,0-1,1v3a1,1,0,1,1-2,0v-3a1,1,0,0,0-2,0v3a3,3,0,0,0,6,0v-3A1,1,0,0,0,54.083,51.667Z" transform="translate(-49.083 -51.667)" fill="#fff"/>
        </g>
      </g>
      <g id="Group_7" data-name="Group 7" transform="translate(0 34.459)">
        <g id="Group_6" data-name="Group 6">
          <path id="Path_4" data-name="Path 4" d="M23,51.342A140.256,140.256,0,0,1,2.748,49.714a.978.978,0,0,1-.408-1.692.934.934,0,0,1,.776-.208A147.491,147.491,0,0,0,23,49.342a1,1,0,1,0,0-2,145.549,145.549,0,0,1-19.546-1.5A2.968,2.968,0,0,0,2.37,51.678,142.506,142.506,0,0,0,23,53.342a1,1,0,1,0,0-2Z" transform="translate(0 -45.801)" fill="#fff"/>
        </g>
      </g>
      <g id="Group_9" data-name="Group 9" transform="translate(22 34.458)">
        <g id="Group_8" data-name="Group 8">
          <path id="Path_5" data-name="Path 5" d="M51.365,46.492a2.94,2.94,0,0,0-2.4-.648,145.492,145.492,0,0,1-19.544,1.5,1,1,0,0,0,0,2A147.488,147.488,0,0,0,49.3,47.814a.941.941,0,0,1,.776.208.96.96,0,0,1,.34.754.946.946,0,0,1-.748.94,140.528,140.528,0,0,1-20.252,1.626,1,1,0,1,0,0,2,142.507,142.507,0,0,0,20.63-1.664,2.978,2.978,0,0,0,1.318-5.186Z" transform="translate(-28.417 -45.8)" fill="#fff"/>
        </g>
      </g>
      <g id="Group_11" data-name="Group 11" transform="translate(18 18)">
        <g id="Group_10" data-name="Group 10">
          <path id="Path_6" data-name="Path 6" d="M28.25,24.542a5,5,0,1,0,5,5A5.006,5.006,0,0,0,28.25,24.542Zm0,8a3,3,0,1,1,3-3A3,3,0,0,1,28.25,32.542Z" transform="translate(-23.25 -24.542)" fill="#fff"/>
        </g>
      </g>
      <g id="Group_13" data-name="Group 13" transform="translate(4 26)">
        <g id="Group_12" data-name="Group 12">
          <path id="Path_7" data-name="Path 7" d="M9.167,34.875a4,4,0,1,0,4,4A4,4,0,0,0,9.167,34.875Zm0,6a2,2,0,1,1,2-2A2,2,0,0,1,9.167,40.875Z" transform="translate(-5.167 -34.875)" fill="#fff"/>
        </g>
      </g>
      <g id="Group_15" data-name="Group 15" transform="translate(34 26)">
        <g id="Group_14" data-name="Group 14">
          <path id="Path_8" data-name="Path 8" d="M47.917,34.875a4,4,0,1,0,4,4A4,4,0,0,0,47.917,34.875Zm0,6a2,2,0,1,1,2-2A2,2,0,0,1,47.917,40.875Z" transform="translate(-43.917 -34.875)" fill="#fff"/>
        </g>
      </g>
      <g id="Group_17" data-name="Group 17" transform="translate(0 0)">
        <g id="Group_16" data-name="Group 16">
          <path id="Path_9" data-name="Path 9" d="M23,1.292c-.17,0-16.962.126-18.916,4.6C2.748,8.952,0,23.306,0,28.292c0,5.114.8,7.934,2.52,8.876a.987.987,0,0,0,.48.124,1,1,0,0,0,.48-1.876C3.132,35.224,2,34.148,2,28.292c0-4.572,2.7-18.82,3.916-21.6.836-1.914,9.87-3.4,17.084-3.4a1,1,0,1,0,0-2Z" transform="translate(0 -1.292)" fill="#fff"/>
        </g>
      </g>
      <g id="Group_19" data-name="Group 19" transform="translate(22)">
        <g id="Group_18" data-name="Group 18">
          <path id="Path_10" data-name="Path 10" d="M48.333,5.892c-1.954-4.474-18.746-4.6-18.916-4.6a1,1,0,0,0,0,2c7.214,0,16.248,1.484,17.084,3.4,1.212,2.78,3.916,17.028,3.916,21.6,0,5.856-1.132,6.932-1.48,7.122a1,1,0,0,0,.48,1.878.987.987,0,0,0,.48-.124c1.72-.942,2.52-3.762,2.52-8.876C52.417,23.306,49.669,8.952,48.333,5.892Z" transform="translate(-28.417 -1.292)" fill="#fff"/>
        </g>
      </g>
      <g id="Group_21" data-name="Group 21" transform="translate(0.999 17.001)">
        <g id="Group_20" data-name="Group 20">
          <path id="Path_11" data-name="Path 11" d="M24.145,40.728C17.221,29.414,9.7,25.666,2.607,23.3a1,1,0,1,0-.632,1.9C8.709,27.442,15.849,31,22.437,41.772a1,1,0,0,0,.854.478.988.988,0,0,0,.522-.146A1,1,0,0,0,24.145,40.728Z" transform="translate(-1.29 -23.252)" fill="#fff"/>
        </g>
      </g>
      <g id="Group_23" data-name="Group 23" transform="translate(21.999 16.999)">
        <g id="Group_22" data-name="Group 22">
          <path id="Path_12" data-name="Path 12" d="M51.367,23.932A1,1,0,0,0,50.1,23.3c-7.094,2.364-14.614,6.112-21.538,17.426a1,1,0,0,0,.332,1.376.971.971,0,0,0,.522.148,1.006,1.006,0,0,0,.856-.48C36.859,31,44,27.442,50.734,25.2A1,1,0,0,0,51.367,23.932Z" transform="translate(-28.416 -23.249)" fill="#fff"/>
        </g>
      </g>
      <g id="Group_25" data-name="Group 25" transform="translate(40 22)">
        <g id="Group_24" data-name="Group 24">
          <circle id="Ellipse_1" data-name="Ellipse 1" cx="1" cy="1" r="1" fill="#fff"/>
        </g>
      </g>
      <g id="Group_27" data-name="Group 27" transform="translate(4 22)">
        <g id="Group_26" data-name="Group 26">
          <circle id="Ellipse_2" data-name="Ellipse 2" cx="1" cy="1" r="1" fill="#fff"/>
        </g>
      </g>
      <g id="Group_29" data-name="Group 29" transform="translate(6 4)">
        <g id="Group_28" data-name="Group 28">
          <path id="Path_13" data-name="Path 13" d="M41.73,17.262,40.052,8.87A3.009,3.009,0,0,0,37.11,6.458H12.388A3.006,3.006,0,0,0,9.448,8.87L7.77,17.262a1,1,0,0,0,.98,1.2h32a1,1,0,0,0,.98-1.2Zm-31.762-.8,1.44-7.2a1,1,0,0,1,.98-.8H37.112a1,1,0,0,1,.978.8l1.44,7.2Z" transform="translate(-7.75 -6.458)" fill="#fff"/>
        </g>
      </g>
      <g id="Group_31" data-name="Group 31" transform="translate(22 4)">
        <g id="Group_30" data-name="Group 30">
          <path id="Path_14" data-name="Path 14" d="M29.417,6.458a1,1,0,0,0-1,1v10a1,1,0,0,0,2,0v-10A1,1,0,0,0,29.417,6.458Z" transform="translate(-28.417 -6.458)" fill="#fff"/>
        </g>
      </g>
      <g id="Group_33" data-name="Group 33" transform="translate(41.999 11.785)">
        <g id="Group_32" data-name="Group 32">
          <path id="Path_15" data-name="Path 15" d="M59.1,17.171c-1.508-1.128-3.87-.478-4.134-.4a1,1,0,0,0,.57,1.918,3.386,3.386,0,0,1,2.37.084c.086.064.346.258.346.956a2.751,2.751,0,0,1-.016.324,5.76,5.76,0,0,1-1.258-1.01,1,1,0,0,0-1.454,1.372c.532.566,1.772,1.73,2.96,1.73a1.62,1.62,0,0,0,.61-.116c.768-.3,1.158-1.078,1.158-2.3A3,3,0,0,0,59.1,17.171Z" transform="translate(-54.248 -16.514)" fill="#fff"/>
        </g>
      </g>
    </g>
  </g>
</svg>
