<svg xmlns="http://www.w3.org/2000/svg" width="24" height="24" viewBox="0 0 24 24">
  <g id="Group_53" data-name="Group 53" transform="translate(-1527 -4698)">
    <path id="instagram" d="M12,9.614A2.387,2.387,0,1,0,14.386,12,2.39,2.39,0,0,0,12,9.614Zm0,0A2.387,2.387,0,1,0,14.386,12,2.39,2.39,0,0,0,12,9.614Zm3.976-3.891H8.024a2.3,2.3,0,0,0-2.3,2.3v7.952a2.3,2.3,0,0,0,2.3,2.3h7.952a2.3,2.3,0,0,0,2.3-2.3V8.024A2.3,2.3,0,0,0,15.976,5.722ZM12,16.133A4.133,4.133,0,1,1,16.133,12,4.138,4.138,0,0,1,12,16.133Zm4.266-7.412a.978.978,0,1,1,.978-.978A.979.979,0,0,1,16.266,8.721ZM12,9.614A2.387,2.387,0,1,0,14.386,12,2.39,2.39,0,0,0,12,9.614Zm3.976-3.891H8.024a2.3,2.3,0,0,0-2.3,2.3v7.952a2.3,2.3,0,0,0,2.3,2.3h7.952a2.3,2.3,0,0,0,2.3-2.3V8.024A2.3,2.3,0,0,0,15.976,5.722ZM12,16.133A4.133,4.133,0,1,1,16.133,12,4.138,4.138,0,0,1,12,16.133Zm4.266-7.412a.978.978,0,1,1,.978-.978A.979.979,0,0,1,16.266,8.721ZM12,9.614A2.387,2.387,0,1,0,14.386,12,2.39,2.39,0,0,0,12,9.614ZM0,0V24H24V0ZM20.024,15.976a4.053,4.053,0,0,1-4.048,4.048H8.024a4.053,4.053,0,0,1-4.048-4.048V8.024A4.053,4.053,0,0,1,8.024,3.976h7.952a4.053,4.053,0,0,1,4.048,4.048ZM15.976,5.722H8.024a2.3,2.3,0,0,0-2.3,2.3v7.952a2.3,2.3,0,0,0,2.3,2.3h7.952a2.3,2.3,0,0,0,2.3-2.3V8.024A2.3,2.3,0,0,0,15.976,5.722ZM12,16.133A4.133,4.133,0,1,1,16.133,12,4.138,4.138,0,0,1,12,16.133Zm4.266-7.412a.978.978,0,1,1,.978-.978A.979.979,0,0,1,16.266,8.721ZM12,9.614A2.387,2.387,0,1,0,14.386,12,2.39,2.39,0,0,0,12,9.614Zm0,0A2.387,2.387,0,1,0,14.386,12,2.39,2.39,0,0,0,12,9.614Zm0,0A2.387,2.387,0,1,0,14.386,12,2.39,2.39,0,0,0,12,9.614Zm3.976-3.891H8.024a2.3,2.3,0,0,0-2.3,2.3v7.952a2.3,2.3,0,0,0,2.3,2.3h7.952a2.3,2.3,0,0,0,2.3-2.3V8.024A2.3,2.3,0,0,0,15.976,5.722ZM12,16.133A4.133,4.133,0,1,1,16.133,12,4.138,4.138,0,0,1,12,16.133Zm4.266-7.412a.978.978,0,1,1,.978-.978A.979.979,0,0,1,16.266,8.721ZM12,9.614A2.387,2.387,0,1,0,14.386,12,2.39,2.39,0,0,0,12,9.614Zm0,0A2.387,2.387,0,1,0,14.386,12,2.39,2.39,0,0,0,12,9.614Zm0,0A2.387,2.387,0,1,0,14.386,12,2.39,2.39,0,0,0,12,9.614Zm3.976-3.891H8.024a2.3,2.3,0,0,0-2.3,2.3v7.952a2.3,2.3,0,0,0,2.3,2.3h7.952a2.3,2.3,0,0,0,2.3-2.3V8.024A2.3,2.3,0,0,0,15.976,5.722ZM12,16.133A4.133,4.133,0,1,1,16.133,12,4.138,4.138,0,0,1,12,16.133Zm4.266-7.412a.978.978,0,1,1,.978-.978A.979.979,0,0,1,16.266,8.721ZM12,9.614A2.387,2.387,0,1,0,14.386,12,2.39,2.39,0,0,0,12,9.614Z" transform="translate(1527 4698)" fill="#fff"/>
  </g>
</svg>
