<svg xmlns="http://www.w3.org/2000/svg" xmlns:xlink="http://www.w3.org/1999/xlink" width="24" height="24" viewBox="0 0 24 24">
  <defs>
    <clipPath id="clip-path">
      <path id="Path_28" data-name="Path 28" d="M0,0H24V24H0Z" transform="translate(1467 4698)" fill="#fff" stroke="#fff" stroke-width="1"/>
    </clipPath>
  </defs>
  <g id="Mask_Group_5" data-name="Mask Group 5" transform="translate(-1467 -4698)" clip-path="url(#clip-path)">
    <g id="twitter" transform="translate(1467 4698)">
      <rect id="Rectangle_20" data-name="Rectangle 20" width="24" height="24" fill="#928080" stroke="#fff" stroke-width="1"/>
      <path id="Path_24" data-name="Path 24" d="M5.3,21.162A10.332,10.332,0,0,0,21.153,12.43q0-.214-.008-.425a8.119,8.119,0,0,0,1.8-1.843,8.38,8.38,0,0,1-2.051.532h-.006l.005,0A3.841,3.841,0,0,0,22.465,8.68a12.586,12.586,0,0,1-1.76.734c-.17.056-.348.112-.531.163A3.625,3.625,0,0,0,14,12.874,10.917,10.917,0,0,1,6.556,9.113s-1.733,2.365,1.033,4.8a3.725,3.725,0,0,1-1.566-.467,3.445,3.445,0,0,0,2.865,3.6,3.317,3.317,0,0,1-1.6.067,3.574,3.574,0,0,0,3.332,2.532A6.963,6.963,0,0,1,5.3,21.162Z" transform="translate(-2.119 -3.372)" fill="#fff" stroke="#fff" stroke-width="1"/>
    </g>
  </g>
</svg>
